<svg width="11" height="12" viewBox="0 0 11 12" fill="#FFF" xmlns="http://www.w3.org/2000/svg">
<path d="M10.1667 10.6667H0.833415C0.656604 10.6667 0.487035 10.7281 0.36201 10.8375C0.236986 10.9469 0.166748 11.0953 0.166748 11.25C0.166748 11.4047 0.236986 11.5531 0.36201 11.6625C0.487035 11.7719 0.656604 11.8333 0.833415 11.8333H10.1667C10.3436 11.8333 10.5131 11.7719 10.6382 11.6625C10.7632 11.5531 10.8334 11.4047 10.8334 11.25C10.8334 11.0953 10.7632 10.9469 10.6382 10.8375C10.5131 10.7281 10.3436 10.6667 10.1667 10.6667ZM5.02675 9.33083C5.09015 9.38394 5.16491 9.42557 5.24675 9.45333C5.32655 9.48419 5.41283 9.50013 5.50008 9.50013C5.58733 9.50013 5.67361 9.48419 5.75341 9.45333C5.83525 9.42557 5.91001 9.38394 5.97341 9.33083L8.64008 6.9975C8.76562 6.88765 8.83614 6.73867 8.83614 6.58333C8.83614 6.42799 8.76562 6.27901 8.64008 6.16916C8.51454 6.05932 8.34428 5.99761 8.16675 5.99761C7.98921 5.99761 7.81895 6.05932 7.69341 6.16916L6.16675 7.51083V0.749997C6.16675 0.595288 6.09651 0.446915 5.97149 0.337518C5.84646 0.228122 5.67689 0.166664 5.50008 0.166664C5.32327 0.166664 5.1537 0.228122 5.02868 0.337518C4.90365 0.446915 4.83341 0.595288 4.83341 0.749997V7.51083L3.30675 6.16916C3.24459 6.11477 3.1708 6.07163 3.08958 6.0422C3.00837 6.01276 2.92132 5.99761 2.83341 5.99761C2.74551 5.99761 2.65846 6.01276 2.57725 6.0422C2.49603 6.07163 2.42224 6.11477 2.36008 6.16916C2.29792 6.22355 2.24862 6.28812 2.21497 6.35918C2.18133 6.43025 2.16402 6.50641 2.16402 6.58333C2.16402 6.66025 2.18133 6.73641 2.21497 6.80748C2.24862 6.87854 2.29792 6.94311 2.36008 6.9975L5.02675 9.33083Z" fill="white"/>
</svg>
