<svg width="57" height="64" viewBox="0 0 57 64" fill="none" xmlns="http://www.w3.org/2000/svg">
<path fill-rule="evenodd" clip-rule="evenodd" d="M0 0.00366211L5.1358 57.6057L28.183 64.0037L51.293 57.5963L56.4343 0.00366211H0ZM46.9154 53.9722L28.2645 59.1031L28.2645 51.7715L28.2084 51.7848L13.7123 47.771L12.7225 36.6859H19.8148L20.3296 42.3127L28.2099 44.429L28.2645 44.4208V33.0177L12.3745 33.0177L11.7558 25.9634V25.9634L28.2645 18.8977L28.2646 18.4097H11.1276L10.5016 11.3554H28.1929H28.2646L28.2645 4.80072H51.2852L46.9154 53.9722Z" fill="#7B4AE2" fill-opacity="0.5"/>
<path fill-rule="evenodd" clip-rule="evenodd" d="M29.4033 18.4098L28.2645 18.8978V25.9634H28.2645V33.0177H36.8922L36.1081 42.2406L28.2645 44.4269V51.777L42.7126 47.7633L44.6151 25.9634H28.2646L45.2565 18.4098L45.8633 11.3555H28.2645V18.3213V18.4098H29.4033Z" fill="#7B4AE2" fill-opacity="0.5"/>
</svg>
