<svg width="24" height="23" viewBox="0 0 24 23" fill="none" xmlns="http://www.w3.org/2000/svg">
<g clip-path="url(#clip0_133_1009)">
<path fill-rule="evenodd" clip-rule="evenodd" d="M8.48233 0.493042C6.41211 0.493042 4.73193 2.12813 4.73193 4.14279C4.73193 6.15745 6.41211 7.79254 8.48233 7.79254C6.41211 7.79254 4.73193 9.42763 4.73193 11.4423C4.73193 13.457 6.41211 15.092 8.48233 15.092C6.41211 15.092 4.73193 16.7271 4.73193 18.7418C4.73193 20.7565 6.41211 22.3915 8.48233 22.3915C10.5526 22.3915 12.2327 20.7565 12.2327 18.7418L12.2327 11.4423C12.2327 13.457 13.9129 15.092 15.9831 15.092C18.0533 15.092 19.7335 13.457 19.7335 11.4423C19.7335 9.42763 18.0533 7.79254 15.9831 7.79254C18.0533 7.79254 19.7335 6.15745 19.7335 4.14279C19.7335 2.12813 18.0533 0.493042 15.9831 0.493042H8.48233ZM15.9831 7.79254H12.2327L12.2327 11.4423C12.2327 9.42763 13.9129 7.79254 15.9831 7.79254Z" fill="#7B4AE2" fill-opacity="0.5"/>
</g>
<defs>
<clipPath id="clip0_133_1009">
<rect width="22.5024" height="21.8985" fill="white" transform="translate(0.952148 0.493042)"/>
</clipPath>
</defs>
</svg>
