<svg width="24" height="23" viewBox="0 0 24 23" fill="none" xmlns="http://www.w3.org/2000/svg">
<path fill-rule="evenodd" clip-rule="evenodd" d="M11.9571 1.00635C5.88959 1.00635 0.969482 5.79353 0.969482 11.6991C0.969482 16.4234 4.11776 20.4315 8.48346 21.8454C9.03259 21.9443 9.23419 21.6134 9.23419 21.331C9.23419 21.076 9.224 20.2337 9.21927 19.3402C6.16251 19.987 5.5175 18.0786 5.5175 18.0786C5.01768 16.8427 4.29753 16.514 4.29753 16.514C3.30062 15.8504 4.37267 15.864 4.37267 15.864C5.47601 15.9395 6.05698 16.9659 6.05698 16.9659C7.03696 18.6006 8.62739 18.128 9.25438 17.8548C9.353 17.1637 9.63775 16.692 9.95198 16.425C7.51149 16.1546 4.94599 15.2377 4.94599 11.1406C4.94599 9.97319 5.37521 9.01933 6.07809 8.27052C5.964 8.0012 5.58791 6.91365 6.18453 5.44081C6.18453 5.44081 7.10719 5.15343 9.20689 6.53686C10.0833 6.29994 11.0233 6.18113 11.9571 6.17706C12.8908 6.18113 13.8315 6.29994 14.7096 6.53686C16.8068 5.15343 17.7281 5.44081 17.7281 5.44081C18.3262 6.91365 17.9499 8.0012 17.8359 8.27052C18.5404 9.01933 18.9667 9.97319 18.9667 11.1406C18.9667 15.2475 16.3963 16.1518 13.9496 16.4165C14.3437 16.7483 14.6949 17.399 14.6949 18.3966C14.6949 19.8273 14.6821 20.9788 14.6821 21.331C14.6821 21.6155 14.8799 21.9489 15.4369 21.8439C19.8002 20.4285 22.9445 16.4218 22.9445 11.6991C22.9445 5.79353 18.0251 1.00635 11.9571 1.00635ZM5.08469 16.2383C5.06049 16.2915 4.97461 16.3074 4.89637 16.2709C4.81668 16.236 4.77192 16.1636 4.79775 16.1103C4.82141 16.0556 4.90747 16.0404 4.98698 16.077C5.06686 16.1119 5.11235 16.1851 5.08469 16.2383ZM5.62516 16.7077C5.57276 16.7549 5.47032 16.733 5.40081 16.6583C5.32894 16.5837 5.31548 16.484 5.36861 16.436C5.42265 16.3888 5.52199 16.4109 5.59404 16.4854C5.66591 16.5609 5.67992 16.6599 5.62516 16.7077ZM5.99594 17.3081C5.92862 17.3536 5.81854 17.311 5.75049 17.2159C5.68317 17.1208 5.68317 17.0068 5.75194 16.9611C5.82017 16.9154 5.92862 16.9565 5.99757 17.0508C6.06471 17.1475 6.06471 17.2616 5.99594 17.3081ZM6.62301 18.0035C6.56278 18.0682 6.43451 18.0508 6.34062 17.9626C6.24455 17.8764 6.21781 17.7541 6.27821 17.6894C6.33917 17.6246 6.46817 17.6429 6.56278 17.7303C6.65812 17.8164 6.68724 17.9396 6.62301 18.0035ZM7.43343 18.2383C7.40687 18.3221 7.28333 18.3601 7.15887 18.3245C7.0346 18.2879 6.95327 18.1898 6.97838 18.1052C7.00421 18.0209 7.1283 17.9812 7.25367 18.0193C7.37776 18.0558 7.45927 18.1531 7.43343 18.2383ZM8.35573 18.3379C8.35883 18.4261 8.2533 18.4992 8.12266 18.5008C7.99129 18.5036 7.88503 18.4323 7.88357 18.3455C7.88357 18.2564 7.98674 18.184 8.11811 18.1819C8.24875 18.1794 8.35573 18.2502 8.35573 18.3379ZM9.26179 18.3041C9.27744 18.3902 9.18664 18.4785 9.05691 18.5021C8.92937 18.5247 8.81128 18.4716 8.79509 18.3863C8.77926 18.2981 8.87169 18.2097 8.99905 18.1869C9.12897 18.1649 9.24523 18.2166 9.26179 18.3041Z" fill="#A3ABB2" fill-opacity="1"/>
</svg>
