<svg width="20" height="20" viewBox="0 0 20 20" fill="none" xmlns="http://www.w3.org/2000/svg">
<path d="M10 0C7.6255 0.000100956 5.32849 0.866489 3.51999 2.44414C1.71149 4.02179 0.509528 6.20776 0.12916 8.6109C-0.251207 11.014 0.214845 13.4775 1.44393 15.5606C2.67301 17.6437 4.58491 19.2104 6.83755 19.9804C7.33755 20.0701 7.52505 19.7625 7.52505 19.4934C7.52505 19.2499 7.51254 18.4424 7.51254 17.5838C5.00003 18.0579 4.35003 16.9558 4.15003 16.3791C3.9281 15.8182 3.5763 15.3211 3.12503 14.9308C2.77503 14.7386 2.27503 14.2644 3.11252 14.2516C3.4323 14.2872 3.73901 14.4013 4.00666 14.5842C4.2743 14.7671 4.49499 15.0135 4.65003 15.3025C4.7868 15.5544 4.97071 15.7762 5.19122 15.9551C5.41173 16.134 5.6645 16.2665 5.93506 16.3451C6.20562 16.4237 6.48864 16.4468 6.76791 16.413C7.04717 16.3792 7.3172 16.2893 7.56251 16.1483C7.6058 15.6271 7.83237 15.1398 8.20003 14.7771C5.97503 14.5207 3.65003 13.6364 3.65003 9.71468C3.63597 8.69568 4.00271 7.7098 4.67503 6.9592C4.36931 6.07357 4.40508 5.10166 4.77503 4.24218C4.77503 4.24218 5.6125 3.97303 7.52503 5.2931C9.16131 4.83169 10.8887 4.83169 12.525 5.2931C14.4375 3.96022 15.275 4.24218 15.275 4.24218C15.645 5.10165 15.6808 6.07358 15.375 6.9592C16.0494 7.70851 16.4164 8.69526 16.4 9.71468C16.4 13.6492 14.0625 14.5207 11.8375 14.7771C12.0762 15.0251 12.26 15.3228 12.3764 15.6501C12.4929 15.9774 12.5393 16.3265 12.5125 16.6738C12.5125 18.0452 12.5 19.1473 12.5 19.4934C12.5 19.7625 12.6875 20.0829 13.1875 19.9804C15.4362 19.2041 17.3426 17.6338 18.5664 15.5496C19.7903 13.4655 20.2519 11.0033 19.8689 8.60245C19.4859 6.20163 18.2832 4.0185 16.4755 2.44277C14.6678 0.867039 12.3727 0.00126614 10 0V0Z" fill="#A3ABB2"/>
</svg>
