<svg width="21" height="22" viewBox="0 0 21 22" fill="none" xmlns="http://www.w3.org/2000/svg">
<path fill-rule="evenodd" clip-rule="evenodd" d="M0.260254 0L2.06261 19.6724L10.1508 21.8574L18.261 19.6692L20.0653 0H0.260254ZM16.7247 18.4314L10.1794 20.1837V17.6798L10.1598 17.6843L5.07252 16.3135L4.72519 12.5277H7.21415L7.39482 14.4493L10.1603 15.1721L10.1794 15.1693V11.275H4.6031L4.60297 11.275V11.275L4.38585 8.86582V8.86576H4.386L10.1794 6.45272V1.63824H18.2583L16.7247 18.4314ZM10.1794 6.2862V3.877H10.1542H3.94564L4.16533 6.2862H10.1794Z" fill="#7B4AE2" fill-opacity="0.5"/>
<path fill-rule="evenodd" clip-rule="evenodd" d="M10.5791 6.28615L10.1795 6.45282V8.86576H10.1794V11.275H13.2072L12.9321 14.4248L10.1794 15.1714V17.6817L15.2498 16.3109L15.9175 8.86576H10.1798L16.1426 6.28615L16.3556 3.87695H10.1795V6.25594V6.28615H10.5791Z" fill="#7B4AE2" fill-opacity="0.5"/>
</svg>
