<svg width="23" height="23" viewBox="0 0 23 23" fill="none" xmlns="http://www.w3.org/2000/svg">
<g clip-path="url(#clip0_133_1013)">
<path d="M11.4641 0.493042C5.25022 0.493042 0.212891 5.39519 0.212891 11.4423C0.212891 17.4894 5.25022 22.3915 11.4641 22.3915C17.678 22.3915 22.7153 17.4894 22.7153 11.4423C22.7153 5.39519 17.678 0.493042 11.4641 0.493042ZM11.4641 1.60653C17.046 1.60653 21.5711 6.01015 21.5711 11.4423C21.5711 16.8744 17.046 21.2781 11.4641 21.2781C5.88214 21.2781 1.35708 16.8744 1.35708 11.4423C1.35708 6.01015 5.88214 1.60653 11.4641 1.60653Z" fill="#7B4AE2" fill-opacity="0.5"/>
<path d="M11.5911 3.64795C16.0146 3.64795 19.6005 7.13761 19.6005 11.4423C19.6005 15.747 16.0146 19.2367 11.5911 19.2367C7.16768 19.2367 3.58179 15.747 3.58179 11.4423C3.58179 10.3903 3.79597 9.38695 4.18421 8.47125C4.7511 9.22251 5.66528 9.71023 6.69653 9.71023C8.41678 9.71023 9.81123 8.35314 9.81123 6.6791C9.81123 5.67553 9.31013 4.78588 8.53808 4.23421C9.47904 3.85638 10.5101 3.64795 11.5911 3.64795Z" fill="#7B4AE2" fill-opacity="0.5"/>
</g>
<defs>
<clipPath id="clip0_133_1013">
<rect width="22.5024" height="21.8985" fill="white" transform="translate(0.212891 0.493042)"/>
</clipPath>
</defs>
</svg>
