<svg width="23" height="22" viewBox="0 0 23 22" fill="none" xmlns="http://www.w3.org/2000/svg">
<g clip-path="url(#clip0_133_1008)">
<path fill-rule="evenodd" clip-rule="evenodd" d="M0.516602 8.25659C0.516602 3.83831 4.09833 0.256592 8.5166 0.256592H14.4916C18.9099 0.256592 22.4916 3.83831 22.4916 8.25659V13.6418C22.4916 18.0601 18.9099 21.6418 14.4916 21.6418H8.5166C4.09832 21.6418 0.516602 18.0601 0.516602 13.6418V8.25659ZM6.29462 18.1276C6.29462 18.1277 6.29464 18.1277 6.29465 18.1277L6.29466 18.1277C6.78145 19.1324 7.74038 19.9649 9.3923 19.9649C11.2215 19.9649 12.4752 19.0175 12.4752 16.936V11.107C12.4752 10.5368 12.013 10.0745 11.4427 10.0745C10.8724 10.0745 10.4102 10.5368 10.4102 11.107V16.9076C10.4102 17.9124 9.98234 18.1707 9.30377 18.1707C8.32111 18.1707 7.28674 17.5434 6.44001 18.0421L6.29466 18.1277L6.29466 18.1276C6.29465 18.1276 6.29462 18.1276 6.29462 18.1276ZM15.4984 17.2818C15.3662 17.1108 15.1305 17.0483 14.9422 17.1543L13.597 17.9123C13.597 17.9123 13.597 17.9123 13.597 17.9123C13.597 17.9123 13.597 17.9123 13.597 17.9123C14.2017 19.0751 15.4408 19.9651 17.3584 19.9651C19.3202 19.9651 20.7806 18.9747 20.7806 17.1658C20.7806 15.4864 19.7922 14.74 18.0368 14.0078L17.5206 13.7925C16.6356 13.4193 16.2521 13.1752 16.2521 12.5722C16.2521 12.0842 16.6356 11.711 17.2404 11.711C17.4985 11.711 17.7171 11.7577 17.911 11.8619C18.3825 12.1154 18.9453 12.3364 19.3992 12.0527C19.8319 11.7823 19.985 11.2006 19.6269 10.8372C19.0119 10.2131 18.2312 9.95959 17.2404 9.95959C15.3965 9.95959 14.2164 11.108 14.2164 12.6153C14.2164 14.2519 15.2048 15.027 16.6947 15.6442L17.2108 15.8596C18.1549 16.2615 18.7154 16.5055 18.7154 17.1946C18.7154 17.7688 18.1698 18.1851 17.3141 18.1851C16.4565 18.1851 15.913 17.8182 15.4984 17.2818Z" fill="#7B4AE2" fill-opacity="0.5"/>
</g>
<defs>
<clipPath id="clip0_133_1008">
<rect x="0.25293" width="22.5024" height="21.8985" rx="8" fill="white"/>
</clipPath>
</defs>
</svg>
