<svg width="24" height="23" viewBox="0 0 24 23" fill="none" xmlns="http://www.w3.org/2000/svg">
<path d="M11.2743 0.503574C11.2259 0.507854 11.072 0.522836 10.9334 0.533538C7.73729 0.813917 4.74357 2.49191 2.84747 5.07098C1.79164 6.50498 1.11635 8.13161 0.861194 9.85455C0.771008 10.456 0.76001 10.6336 0.76001 11.4491C0.76001 12.2645 0.771008 12.4422 0.861194 13.0436C1.4727 17.1551 4.47961 20.6096 8.55776 21.8895C9.28804 22.1185 10.0579 22.2747 10.9334 22.3689C11.2743 22.4053 12.7481 22.4053 13.089 22.3689C14.6002 22.2062 15.8804 21.8424 17.143 21.2153C17.3365 21.119 17.3739 21.0933 17.3475 21.0719C17.3299 21.059 16.5051 19.9825 15.5152 18.6812L13.7159 16.3161L11.4613 13.0693C10.2207 11.2843 9.20005 9.82459 9.19126 9.82459C9.18246 9.82245 9.17366 11.265 9.16926 13.0265C9.16266 16.1107 9.16046 16.2348 9.12087 16.3076C9.06368 16.4124 9.01968 16.4552 8.9273 16.5023C8.85691 16.5366 8.79532 16.543 8.46317 16.543H8.08263L7.98145 16.4809C7.91546 16.4403 7.86707 16.3868 7.83407 16.3247L7.78788 16.2284L7.79228 11.9371L7.79888 7.64362L7.86707 7.56015C7.90226 7.5152 7.97705 7.45741 8.02984 7.42959C8.12003 7.38678 8.15522 7.3825 8.53576 7.3825C8.98449 7.3825 9.05928 7.39963 9.17586 7.52376C9.20885 7.55801 10.4297 9.3473 11.8902 11.5026C13.3508 13.6579 15.3481 16.6008 16.3291 18.0455L18.1108 20.6716L18.201 20.6138C18.9995 20.1087 19.8441 19.3896 20.5128 18.6405C21.936 17.0502 22.8533 15.1111 23.1612 13.0436C23.2514 12.4422 23.2624 12.2645 23.2624 11.4491C23.2624 10.6336 23.2514 10.456 23.1612 9.85455C22.5497 5.74303 19.5428 2.28859 15.4646 1.00868C14.7454 0.781813 13.9799 0.625571 13.122 0.531398C12.9109 0.509995 11.4569 0.486451 11.2743 0.503574ZM15.8804 7.12567C15.986 7.17703 16.0718 7.27549 16.1025 7.37822C16.1201 7.43387 16.1245 8.62388 16.1201 11.3057L16.1135 15.1539L15.4163 14.1138L14.7168 13.0736V10.2762C14.7168 8.46764 14.7256 7.45099 14.7388 7.40177C14.774 7.28191 14.8509 7.18774 14.9565 7.13209C15.0467 7.08714 15.0797 7.08286 15.4251 7.08286C15.7506 7.08286 15.8078 7.08714 15.8804 7.12567Z" fill="#7B4AE2" fill-opacity="0.5"/>
</svg>
