<svg width="64" height="58" viewBox="0 0 64 58" fill="none" xmlns="http://www.w3.org/2000/svg">
<path d="M52.6208 18.9596C51.9569 18.7311 51.269 18.5148 50.5606 18.3103C50.677 17.8352 50.7839 17.3662 50.8789 16.9052C52.4385 9.33488 51.4188 3.23622 47.9368 1.22829C44.5981 -0.697062 39.1378 1.31042 33.6232 6.10961C33.0929 6.57109 32.5612 7.05969 32.0296 7.57176C31.6754 7.23296 31.3218 6.90556 30.9691 6.5924C25.1897 1.46079 19.3967 -0.701733 15.9181 1.31202C12.5826 3.24295 11.5948 8.97627 12.9986 16.1507C13.1342 16.8436 13.2927 17.5513 13.4718 18.2708C12.652 18.5036 11.8605 18.7517 11.1031 19.0156C4.32733 21.378 0 25.0803 0 28.9207C0 32.887 4.64539 36.8653 11.7029 39.2775C12.2599 39.4679 12.8378 39.6479 13.4333 39.8187C13.24 40.5969 13.0719 41.3595 12.9307 42.1033C11.5922 49.1532 12.6375 54.751 15.9642 56.6698C19.4003 58.6513 25.1671 56.6145 30.7825 51.706C31.2264 51.318 31.6718 50.9065 32.118 50.4752C32.6964 51.0321 33.2738 51.5592 33.8482 52.0536C39.2874 56.7342 44.6595 58.6243 47.9831 56.7002C51.4158 54.713 52.5314 48.6995 51.083 41.3832C50.9724 40.8244 50.8437 40.2536 50.6991 39.6726C51.1041 39.5528 51.5017 39.4292 51.8894 39.3007C59.2263 36.8698 64 32.94 64 28.9207C64 25.0664 59.5331 21.3391 52.6208 18.9596ZM51.0295 36.7056C50.6796 36.8214 50.3205 36.9334 49.9546 37.042C49.1446 34.4778 48.0514 31.7511 46.7137 28.934C47.9903 26.184 49.0412 23.4922 49.8285 20.9446C50.4832 21.1341 51.1186 21.3339 51.7309 21.5447C57.6533 23.5835 61.2659 26.598 61.2659 28.9207C61.2659 31.3948 57.3644 34.6065 51.0295 36.7056ZM48.4009 41.9142C49.0414 45.1494 49.1329 48.0743 48.7086 50.3609C48.3275 52.4156 47.5609 53.7854 46.6131 54.3341C44.5962 55.5015 40.2829 53.984 35.6313 49.9811C35.098 49.5223 34.5609 49.0323 34.0221 48.5137C35.8254 46.5414 37.6277 44.2486 39.3867 41.7022C42.4807 41.4276 45.4037 40.9788 48.0545 40.366C48.1851 40.8926 48.301 41.4092 48.4009 41.9142ZM21.819 54.1323C19.8485 54.8283 18.279 54.8482 17.3303 54.3012C15.3115 53.1368 14.4723 48.6422 15.6171 42.6132C15.7482 41.9227 15.9043 41.2134 16.0841 40.4885C18.7059 41.0682 21.6075 41.4854 24.7088 41.7368C26.4797 44.2285 28.3341 46.5189 30.2028 48.5243C29.7945 48.9185 29.3878 49.2937 28.9834 49.6473C26.5003 51.8178 24.012 53.3578 21.819 54.1323ZM12.5872 36.6904C9.46645 35.6238 6.88926 34.2375 5.12272 32.7248C3.53537 31.3654 2.73395 30.0158 2.73395 28.9207C2.73395 26.5902 6.20836 23.6177 12.0031 21.5974C12.7062 21.3522 13.4422 21.1212 14.2061 20.9042C15.0069 23.5093 16.0575 26.233 17.3253 28.9872C16.0411 31.7823 14.9756 34.5494 14.1669 37.185C13.6223 37.0285 13.0948 36.8638 12.5872 36.6904ZM15.6818 15.6256C14.479 9.47877 15.2778 4.8418 17.2879 3.67823C19.429 2.43868 24.1636 4.20602 29.1537 8.6369C29.4727 8.92011 29.7929 9.21652 30.1141 9.52319C28.2546 11.5199 26.4172 13.793 24.662 16.2701C21.652 16.549 18.7708 16.9972 16.1217 17.5973C15.9552 16.9274 15.8076 16.2691 15.6818 15.6256ZM43.2885 22.4424C42.6552 21.3486 42.0051 20.2806 41.3423 19.2417C43.3843 19.4999 45.3407 19.8426 47.178 20.2619C46.6264 22.0297 45.9389 23.878 45.1296 25.7728C44.5491 24.6707 43.9351 23.5594 43.2885 22.4424ZM32.0305 11.4771C33.2916 12.8434 34.5545 14.3687 35.7967 16.0238C34.545 15.9646 33.2777 15.9339 32 15.9339C30.7344 15.9339 29.4765 15.964 28.2325 16.0221C29.4759 14.3824 30.7497 12.8591 32.0305 11.4771ZM20.7005 22.4613C20.0679 23.5583 19.4652 24.6635 18.8938 25.7708C18.0977 23.8826 17.4165 22.0258 16.8601 20.233C18.6862 19.8243 20.6334 19.4902 22.6624 19.237C21.9903 20.2854 21.3348 21.3612 20.7005 22.4611V22.4613ZM22.7208 38.7994C20.6245 38.5655 18.648 38.2486 16.8224 37.8512C17.3877 36.0264 18.0839 34.13 18.8969 32.2011C19.4698 33.3076 20.0748 34.4133 20.7113 35.5126H20.7114C21.3597 36.6325 22.0314 37.7296 22.7208 38.7994ZM32.1062 46.5569C30.8103 45.1588 29.5178 43.6122 28.2555 41.9487C29.4809 41.9968 30.7303 42.0214 32 42.0214C33.3045 42.0214 34.5941 41.992 35.8633 41.9355C34.6171 43.629 33.3587 45.1779 32.1062 46.5569ZM45.1557 32.1028C46.0111 34.0525 46.7323 35.939 47.3048 37.7328C45.4492 38.1561 43.4457 38.497 41.3348 38.7504C41.9991 37.6976 42.655 36.6112 43.2994 35.4938C43.9514 34.3633 44.5704 33.231 45.1557 32.1028ZM40.9311 34.1279C39.9307 35.8625 38.9036 37.5185 37.8609 39.0816C35.9618 39.2174 33.9997 39.2873 32 39.2873C30.0084 39.2873 28.071 39.2254 26.2055 39.1043C25.1208 37.5208 24.0713 35.8599 23.0773 34.1428H23.0775C22.0861 32.4304 21.1736 30.7035 20.3468 28.9863C21.1734 27.2651 22.0835 25.5362 23.0692 23.8269L23.069 23.8272C24.0573 22.1133 25.0975 20.4606 26.1722 18.8869C28.0756 18.743 30.0274 18.6679 31.9999 18.6679H32C33.9814 18.6679 35.9357 18.7436 37.8385 18.8887C38.8968 20.4509 39.9299 22.0983 40.9221 23.8124C41.9257 25.5458 42.8475 27.2631 43.6812 28.9474C42.85 30.6607 41.9302 32.3953 40.9311 34.1279ZM46.5712 3.59689C48.7143 4.8328 49.5478 9.81722 48.2012 16.3533C48.1153 16.7704 48.0186 17.1952 47.9136 17.6257C45.2584 17.013 42.3751 16.5571 39.3563 16.2739C37.5978 13.7696 35.7754 11.493 33.9462 9.52194C34.438 9.04883 34.9291 8.59771 35.4181 8.172C40.1431 4.06009 44.5591 2.43663 46.5712 3.59689ZM32 23.2057C35.1562 23.2057 37.715 25.7643 37.715 28.9207C37.715 32.0769 35.1562 34.6356 32 34.6356C28.8438 34.6356 26.285 32.0769 26.285 28.9207C26.285 25.7643 28.8438 23.2057 32 23.2057Z" fill="#7B4AE2" fill-opacity="0.5"/>
</svg>
