<svg width="23" height="23" viewBox="0 0 23 23" fill="none" xmlns="http://www.w3.org/2000/svg">
<path fill-rule="evenodd" clip-rule="evenodd" d="M22.5374 10.4668L12.7126 0.906081C12.1472 0.355362 11.2294 0.355362 10.6633 0.906081L8.62315 2.8915L11.2112 5.4101C11.8126 5.21235 12.5022 5.34499 12.9817 5.81161C13.4634 6.28111 13.5987 6.95798 13.3905 7.54522L15.8847 9.97251C16.4881 9.7702 17.1844 9.90115 17.6664 10.3709C18.3399 11.0261 18.3399 12.0882 17.6664 12.7439C16.9926 13.3996 15.9013 13.3996 15.2272 12.7439C14.7206 12.2503 14.5954 11.5262 14.8519 10.9187L12.5259 8.65506L12.5257 14.612C12.6898 14.6913 12.8449 14.7968 12.9817 14.9295C13.6552 15.5847 13.6552 16.6467 12.9817 17.3029C12.3079 17.9584 11.2161 17.9584 10.5433 17.3029C9.86975 16.6467 9.86975 15.5847 10.5433 14.9295C10.7097 14.7677 10.9023 14.6454 11.1077 14.5633V8.55078C10.9023 8.46909 10.7099 8.34751 10.5433 8.1846C10.033 7.68866 9.91024 6.9599 10.1717 6.35007L7.62074 3.86703L0.884079 10.4226C0.317937 10.9738 0.317937 11.8669 0.884079 12.4176L10.709 21.9785C11.2746 22.5292 12.1921 22.5292 12.7585 21.9785L22.5374 12.462C23.1033 11.9111 23.1033 11.0175 22.5374 10.4668Z" fill="#7B4AE2" fill-opacity="0.5"/>
</svg>
