<svg width="19" height="19" viewBox="0 0 19 19" fill="none" xmlns="http://www.w3.org/2000/svg">
<path d="M9.17198 5.50531C8.92887 5.50531 8.69571 5.60189 8.5238 5.7738C8.35189 5.94571 8.25532 6.17887 8.25532 6.42198C8.25532 6.6651 8.35189 6.89825 8.5238 7.07016C8.69571 7.24207 8.92887 7.33865 9.17198 7.33865C9.65821 7.33865 10.1245 7.5318 10.4683 7.87562C10.8122 8.21944 11.0053 8.68575 11.0053 9.17198C11.0053 9.65821 10.8122 10.1245 10.4683 10.4683C10.1245 10.8122 9.65821 11.0053 9.17198 11.0053C8.92887 11.0053 8.69571 11.1019 8.5238 11.2738C8.35189 11.4457 8.25532 11.6789 8.25532 11.922C8.25532 12.1651 8.35189 12.3983 8.5238 12.5702C8.69571 12.7421 8.92887 12.8386 9.17198 12.8386C10.1444 12.8386 11.0771 12.4523 11.7647 11.7647C12.4523 11.0771 12.8386 10.1444 12.8386 9.17198C12.8386 8.19952 12.4523 7.26689 11.7647 6.57926C11.0771 5.89162 10.1444 5.50531 9.17198 5.50531ZM18.0728 8.52115L15.9187 6.42198V3.34198C15.9187 3.09887 15.8221 2.86571 15.6502 2.6938C15.4783 2.52189 15.2451 2.42531 15.002 2.42531H11.9678L9.82282 0.271148C9.7376 0.185231 9.63622 0.117036 9.52451 0.070498C9.41281 0.0239601 9.29299 0 9.17198 0C9.05097 0 8.93116 0.0239601 8.81945 0.070498C8.70775 0.117036 8.60637 0.185231 8.52115 0.271148L6.42198 2.42531H3.34198C3.09887 2.42531 2.86571 2.52189 2.6938 2.6938C2.52189 2.86571 2.42532 3.09887 2.42532 3.34198V6.42198L0.271148 8.52115C0.185231 8.60636 0.117036 8.70775 0.070498 8.81945C0.0239601 8.93116 0 9.05097 0 9.17198C0 9.29299 0.0239601 9.41281 0.070498 9.52451C0.117036 9.63621 0.185231 9.7376 0.271148 9.82281L2.42532 11.9678V15.002C2.42532 15.2451 2.52189 15.4783 2.6938 15.6502C2.86571 15.8221 3.09887 15.9186 3.34198 15.9186H6.42198L8.56698 18.0728C8.6522 18.1587 8.75358 18.2269 8.86529 18.2735C8.97699 18.32 9.09681 18.344 9.21782 18.344C9.33883 18.344 9.45864 18.32 9.57034 18.2735C9.68205 18.2269 9.78343 18.1587 9.86865 18.0728L12.0136 15.9186H15.0478C15.2909 15.9186 15.5241 15.8221 15.696 15.6502C15.8679 15.4783 15.9645 15.2451 15.9645 15.002V11.9678L18.1187 9.82281C18.2016 9.73461 18.2663 9.63083 18.309 9.51748C18.3516 9.40413 18.3714 9.28346 18.3671 9.16243C18.3629 9.04139 18.3347 8.9224 18.2841 8.81234C18.2336 8.70227 18.1618 8.6033 18.0728 8.52115ZM14.3603 10.9411C14.2737 11.026 14.2048 11.1273 14.1576 11.239C14.1104 11.3507 14.0858 11.4707 14.0853 11.592V14.0853H11.592C11.4707 14.0858 11.3507 14.1104 11.239 14.1576C11.1273 14.2048 11.026 14.2737 10.9411 14.3603L9.17198 16.1295L7.40282 14.3603C7.31792 14.2737 7.21668 14.2048 7.10496 14.1576C6.99324 14.1104 6.87326 14.0858 6.75198 14.0853H4.25865V11.592C4.25815 11.4707 4.23358 11.3507 4.18637 11.239C4.13917 11.1273 4.07026 11.026 3.98365 10.9411L2.21448 9.17198L3.98365 7.40281C4.07026 7.31792 4.13917 7.21668 4.18637 7.10496C4.23358 6.99324 4.25815 6.87326 4.25865 6.75198V4.25865H6.75198C6.87326 4.25814 6.99324 4.23358 7.10496 4.18637C7.21668 4.13917 7.31792 4.07026 7.40282 3.98365L9.17198 2.21448L10.9411 3.98365C11.026 4.07026 11.1273 4.13917 11.239 4.18637C11.3507 4.23358 11.4707 4.25814 11.592 4.25865H14.0853V6.75198C14.0858 6.87326 14.1104 6.99324 14.1576 7.10496C14.2048 7.21668 14.2737 7.31792 14.3603 7.40281L16.1295 9.17198L14.3603 10.9411Z" fill="#A3ABB2"/>
</svg>
