<svg width="23" height="22" viewBox="0 0 23 22" fill="none" xmlns="http://www.w3.org/2000/svg">
<g clip-path="url(#clip0_133_1007)">
<path fill-rule="evenodd" clip-rule="evenodd" d="M20.7507 0H1.76435C0.793431 0 0.00634766 0.76596 0.00634766 1.71082V20.1877C0.00634766 21.1325 0.793431 21.8985 1.76435 21.8985H20.7507C21.7217 21.8985 22.5087 21.1325 22.5087 20.1877V1.71082C22.5087 0.76596 21.7217 0 20.7507 0ZM13.2369 19.5115V17.1488C13.6773 17.5082 14.1556 17.7776 14.672 17.9573C15.1883 18.137 15.7097 18.2268 16.2361 18.2268C16.5449 18.2268 16.8145 18.1997 17.0448 18.1456C17.2751 18.0914 17.4675 18.0164 17.6218 17.9204C17.7762 17.8244 17.8914 17.7112 17.9673 17.5808C18.0432 17.4504 18.0812 17.3088 18.0812 17.1563C18.0812 16.9495 18.0205 16.7649 17.899 16.6025C17.7775 16.44 17.6117 16.2899 17.4017 16.1521C17.1916 16.0143 16.9423 15.8815 16.6537 15.7535C16.3652 15.6254 16.0539 15.4951 15.7198 15.3621C14.8693 15.0176 14.2354 14.5967 13.8178 14.0996C13.4001 13.6025 13.1913 13.002 13.1913 12.2981C13.1913 11.7468 13.3053 11.2731 13.533 10.8769C13.7608 10.4807 14.0709 10.1546 14.4632 9.89855C14.8555 9.64261 15.3098 9.45434 15.8261 9.33381C16.3425 9.2132 16.8891 9.15289 17.4662 9.15289C18.0331 9.15289 18.5356 9.18608 18.9734 9.25255C19.4112 9.31901 19.815 9.42115 20.1845 9.55895V11.7665C20.0023 11.6435 19.8035 11.5352 19.5884 11.4417C19.3733 11.3481 19.1518 11.2706 18.9241 11.2091C18.6962 11.1475 18.4697 11.102 18.2444 11.0725C18.0192 11.043 17.8054 11.0282 17.6029 11.0282C17.3245 11.0282 17.0713 11.054 16.8436 11.1057C16.6157 11.1575 16.4234 11.23 16.2665 11.3236C16.1096 11.4171 15.9881 11.529 15.902 11.6595C15.8159 11.7899 15.773 11.9363 15.773 12.0988C15.773 12.276 15.821 12.4347 15.9172 12.575C16.0134 12.7152 16.1501 12.8482 16.3273 12.9737C16.5044 13.0992 16.7196 13.2222 16.9726 13.3429C17.2258 13.4635 17.5117 13.5877 17.8306 13.7157C18.266 13.8929 18.657 14.0812 19.0038 14.2805C19.3505 14.4799 19.6479 14.705 19.8959 14.9561C20.144 15.2071 20.3338 15.4938 20.4654 15.8162C20.597 16.1386 20.6628 16.514 20.6628 16.9422C20.6628 17.5328 20.5477 18.0287 20.3174 18.4298C20.087 18.831 19.7744 19.1559 19.3796 19.4045C18.9848 19.653 18.5254 19.8314 18.0015 19.9397C17.4776 20.048 16.9245 20.1021 16.3425 20.1021C15.7451 20.1021 15.1769 20.053 14.6378 19.9545C14.0987 19.856 13.6317 19.7084 13.2369 19.5115ZM12.3123 11.2693H9.19031V19.9311H6.71704V11.2693H3.61025V9.32397H12.3123V11.2693Z" fill="#7B4AE2" fill-opacity="0.5"/>
</g>
<defs>
<clipPath id="clip0_133_1007">
<rect width="22.5024" height="21.8985" fill="white" transform="translate(0.00634766)"/>
</clipPath>
</defs>
</svg>
