<svg width="23" height="20" viewBox="0 0 23 20" fill="none" xmlns="http://www.w3.org/2000/svg">
<path d="M19.0007 6.28652C18.7673 6.20862 18.5254 6.13492 18.2764 6.06521C18.3173 5.90324 18.3549 5.74337 18.3883 5.58622C18.9366 3.0057 18.5781 0.926823 17.3538 0.242367C16.1799 -0.413935 14.2601 0.270365 12.3212 1.90629C12.1347 2.0636 11.9478 2.23015 11.7609 2.4047C11.6363 2.28921 11.512 2.17761 11.388 2.07086C9.35596 0.321624 7.31913 -0.415528 6.09609 0.270909C4.92331 0.929114 4.576 2.88346 5.06958 5.32903C5.11725 5.56525 5.17296 5.80647 5.23597 6.05174C4.9477 6.13107 4.6694 6.21565 4.40313 6.30562C2.02076 7.11089 0.499268 8.37293 0.499268 9.682C0.499268 11.034 2.13259 12.3901 4.61401 13.2124C4.80983 13.2773 5.01303 13.3386 5.22243 13.3969C5.15446 13.6621 5.09534 13.9221 5.04571 14.1756C4.57508 16.5788 4.94261 18.4869 6.11227 19.141C7.32041 19.8164 9.34803 19.1221 11.3224 17.4489C11.4785 17.3167 11.6351 17.1764 11.792 17.0294C11.9953 17.2193 12.1983 17.3989 12.4003 17.5675C14.3127 19.163 16.2015 19.8072 17.3701 19.1513C18.5771 18.474 18.9693 16.4241 18.4601 13.9302C18.4212 13.7397 18.3759 13.5451 18.3251 13.3471C18.4675 13.3062 18.6073 13.2641 18.7436 13.2203C21.3232 12.3917 23.0017 11.0521 23.0017 9.682C23.0017 8.36819 21.4311 7.09764 19.0007 6.28652ZM18.4412 12.3357C18.3182 12.3752 18.1919 12.4133 18.0633 12.4503C17.7785 11.5763 17.3941 10.6468 16.9238 9.68655C17.3726 8.74914 17.7421 7.83157 18.0189 6.96317C18.2491 7.02775 18.4726 7.09586 18.6878 7.16774C20.7702 7.86272 22.0404 8.89025 22.0404 9.682C22.0404 10.5254 20.6686 11.6202 18.4412 12.3357ZM17.517 14.1112C17.7422 15.214 17.7744 16.211 17.6252 16.9905C17.4912 17.6908 17.2217 18.1578 16.8884 18.3448C16.1793 18.7428 14.6627 18.2255 13.0272 16.861C12.8397 16.7046 12.6509 16.5376 12.4614 16.3608C13.0955 15.6885 13.7292 14.9069 14.3476 14.0389C15.4355 13.9453 16.4632 13.7923 17.3952 13.5834C17.4411 13.763 17.4819 13.939 17.517 14.1112ZM8.17084 18.276C7.47799 18.5133 6.92616 18.5201 6.59259 18.3336C5.8828 17.9367 5.58772 16.4046 5.99022 14.3494C6.03632 14.1141 6.0912 13.8723 6.15444 13.6252C7.07625 13.8228 8.09646 13.965 9.18689 14.0507C9.80953 14.9001 10.4615 15.6808 11.1186 16.3644C10.975 16.4988 10.832 16.6267 10.6898 16.7472C9.81678 17.4871 8.94188 18.012 8.17084 18.276ZM4.92491 12.3305C3.82767 11.9669 2.92153 11.4944 2.30041 10.9787C1.7423 10.5153 1.46052 10.0553 1.46052 9.682C1.46052 8.88761 2.68213 7.87437 4.71955 7.18568C4.96676 7.10211 5.22555 7.02336 5.49411 6.94938C5.77569 7.8374 6.14507 8.76584 6.59083 9.70468C6.1393 10.6575 5.76468 11.6007 5.48034 12.4991C5.28888 12.4458 5.10339 12.3896 4.92491 12.3305ZM6.01297 5.15006C5.59008 3.05475 5.87094 1.47412 6.57769 1.07749C7.33051 0.654959 8.99519 1.2574 10.7497 2.76778C10.8619 2.86432 10.9745 2.96536 11.0874 3.06989C10.4336 3.7505 9.78754 4.52536 9.17043 5.36973C8.11212 5.46483 7.09908 5.61759 6.16766 5.82216C6.1091 5.59379 6.05723 5.36942 6.01297 5.15006ZM15.7195 7.47373C15.4968 7.10087 15.2682 6.73682 15.0352 6.3827C15.7532 6.4707 16.4411 6.58751 17.087 6.73045C16.8931 7.33304 16.6514 7.9631 16.3668 8.60899C16.1627 8.23329 15.9468 7.85448 15.7195 7.47373ZM11.7612 3.73594C12.2046 4.20166 12.6486 4.72162 13.0854 5.28577C12.6453 5.26562 12.1997 5.25514 11.7505 5.25514C11.3055 5.25514 10.8632 5.26539 10.4258 5.28519C10.863 4.72628 11.3109 4.20702 11.7612 3.73594ZM7.77755 7.48018C7.55513 7.8541 7.34325 8.23085 7.14233 8.60829C6.8624 7.96465 6.62291 7.33172 6.42729 6.72058C7.06932 6.58129 7.75396 6.4674 8.46736 6.38107C8.23104 6.73845 8.00057 7.10518 7.77755 7.4801V7.48018ZM8.48791 13.0494C7.75083 12.9697 7.0559 12.8617 6.41403 12.7262C6.61278 12.1042 6.85755 11.4577 7.14342 10.8002C7.34485 11.1774 7.55757 11.5543 7.78135 11.929H7.78139C8.00934 12.3108 8.2455 12.6847 8.48791 13.0494ZM11.7878 15.6938C11.3322 15.2172 10.8777 14.69 10.4339 14.1229C10.8647 14.1393 11.304 14.1477 11.7505 14.1477C12.2091 14.1477 12.6625 14.1377 13.1088 14.1184C12.6706 14.6957 12.2282 15.2237 11.7878 15.6938ZM16.376 10.7667C16.6768 11.4313 16.9303 12.0744 17.1316 12.6858C16.4792 12.8301 15.7748 12.9464 15.0326 13.0327C15.2662 12.6738 15.4967 12.3035 15.7233 11.9226C15.9526 11.5372 16.1702 11.1513 16.376 10.7667ZM14.8906 11.457C14.5389 12.0483 14.1778 12.6128 13.8112 13.1456C13.1434 13.1919 12.4536 13.2157 11.7505 13.2157C11.0502 13.2157 10.369 13.1946 9.71312 13.1534C9.33172 12.6136 8.96275 12.0474 8.61324 11.4621H8.61332C8.26473 10.8784 7.94389 10.2897 7.65318 9.70437C7.94381 9.11765 8.2638 8.52834 8.61039 7.94566L8.61031 7.94578C8.95782 7.36155 9.32355 6.79817 9.70142 6.26174C10.3706 6.2127 11.0569 6.18711 11.7504 6.18711H11.7505C12.4471 6.18711 13.1342 6.21289 13.8033 6.26236C14.1754 6.79487 14.5386 7.35642 14.8875 7.94073C15.2403 8.5316 15.5644 9.11699 15.8576 9.69113C15.5653 10.2751 15.2419 10.8664 14.8906 11.457ZM16.8737 1.04977C17.6272 1.47106 17.9202 3.17012 17.4468 5.39812C17.4166 5.54028 17.3826 5.68509 17.3457 5.83183C16.4121 5.62299 15.3983 5.46759 14.3369 5.37105C13.7186 4.5174 13.0779 3.74134 12.4347 3.06947C12.6077 2.9082 12.7803 2.75442 12.9523 2.6093C14.6136 1.20766 16.1662 0.65426 16.8737 1.04977ZM11.7505 7.73391C12.8602 7.73391 13.7598 8.60608 13.7598 9.682C13.7598 10.7579 12.8602 11.6301 11.7505 11.6301C10.6407 11.6301 9.74107 10.7579 9.74107 9.682C9.74107 8.60608 10.6407 7.73391 11.7505 7.73391Z" fill="#7B4AE2" fill-opacity="0.5"/>
</svg>
