<svg width="20" height="20" viewBox="0 0 20 20" fill="none" xmlns="http://www.w3.org/2000/svg">
<path d="M10.1099 20.1099C4.59586 20.1099 0.109863 15.6239 0.109863 10.1099C0.109863 4.59586 4.59586 0.109863 10.1099 0.109863C15.6239 0.109863 20.1099 4.59586 20.1099 10.1099C20.1099 15.6239 15.6239 20.1099 10.1099 20.1099Z" fill="#A3ABB2"/>
<path d="M7.06256 15.3818C6.6628 15.3818 6.28696 15.2261 6.0042 14.9434L4.81434 13.7535C4.23083 13.17 4.23083 12.2205 4.81434 11.6368L8.28162 8.16973C8.86513 7.586 9.81461 7.586 10.3983 8.16973L10.6829 8.45425C10.9399 8.71154 10.9399 9.12843 10.6826 9.38572C10.4251 9.64279 10.0085 9.64279 9.75116 9.38572L9.46687 9.1012C9.39706 9.03139 9.28312 9.03139 9.21287 9.1012L5.74582 12.5683C5.676 12.6383 5.676 12.7522 5.74582 12.8223L6.93567 14.0121C6.97914 14.0556 7.02876 14.0646 7.06256 14.0646C7.09659 14.0646 7.14599 14.0556 7.18945 14.0121L8.17054 13.0308C8.42783 12.7735 8.84472 12.7735 9.10201 13.0308C9.3593 13.2879 9.3593 13.7048 9.10201 13.9621L8.12092 14.9434C7.83839 15.2261 7.46255 15.3818 7.06256 15.3818Z" fill="#0C151D"/>
<path d="M10.1985 12.2453C9.81516 12.2453 9.43208 12.0995 9.14032 11.808L8.85581 11.5233C8.59852 11.2662 8.59852 10.8491 8.85581 10.592C9.11288 10.3347 9.52999 10.3347 9.78706 10.592L10.0716 10.8765C10.1416 10.9463 10.2555 10.9466 10.3256 10.8765L13.7926 7.40926C13.8361 7.36579 13.8451 7.31617 13.8451 7.28237C13.8451 7.24834 13.8361 7.19895 13.7926 7.15548L12.6028 5.9654C12.5327 5.89537 12.4186 5.89559 12.3488 5.9654L11.3675 6.94648C11.1102 7.20356 10.6935 7.20356 10.4362 6.94648C10.1789 6.68941 10.1789 6.2723 10.4362 6.01501L11.4175 5.03393C12.0008 4.45063 12.9503 4.45041 13.5342 5.03393L14.7241 6.22401C15.0069 6.50654 15.1625 6.88238 15.1625 7.28237C15.1625 7.68213 15.0069 8.05797 14.7241 8.34073L11.2566 11.8078C10.9651 12.0995 10.5818 12.2453 10.1985 12.2453Z" fill="#0C151D"/>
</svg>
